<svg aria-hidden="true" style="position: absolute; width: 0; height: 0; overflow: hidden;" version="1.1" xmlns="http://www.w3.org/2000/svg" xmlns:xlink="http://www.w3.org/1999/xlink">
<defs>
<symbol id="icon-facebook" viewBox="0 0 32 32">
<path d="M16 2.667c7.352 0 13.333 5.981 13.333 13.333s-5.981 13.333-13.333 13.333-13.333-5.981-13.333-13.333 5.981-13.333 13.333-13.333zM16 0c-8.836 0-16 7.164-16 16s7.164 16 16 16 16-7.164 16-16-7.164-16-16-16zM13.333 13.333h-2.667v2.667h2.667v8h4v-8h2.427l0.24-2.667h-2.667v-1.111c0-0.637 0.128-0.889 0.744-0.889h1.923v-3.333h-3.205c-2.397 0-3.461 1.056-3.461 3.077v2.256z"></path>
</symbol>
<symbol id="icon-instagram" viewBox="0 0 32 32">
<path d="M16 2.667c7.352 0 13.333 5.981 13.333 13.333s-5.981 13.333-13.333 13.333-13.333-5.981-13.333-13.333 5.981-13.333 13.333-13.333zM16 0c-8.836 0-16 7.164-16 16s7.164 16 16 16 16-7.164 16-16-7.164-16-16-16zM16 9.443c2.136 0 2.389 0.008 3.233 0.047 2.169 0.099 3.18 1.127 3.28 3.279 0.037 0.844 0.045 1.096 0.045 3.232s-0.008 2.389-0.045 3.232c-0.1 2.151-1.109 3.181-3.28 3.28-0.844 0.037-1.096 0.047-3.233 0.047-2.136 0-2.389-0.008-3.232-0.047-2.173-0.1-3.18-1.132-3.28-3.28-0.037-0.843-0.047-1.096-0.047-3.232s0.009-2.389 0.047-3.232c0.099-2.153 1.109-3.181 3.28-3.28 0.843-0.039 1.096-0.045 3.232-0.045zM16 8c-2.173 0-2.444 0.009-3.299 0.049-2.907 0.133-4.52 1.745-4.653 4.652-0.039 0.855-0.048 1.127-0.048 3.299 0 2.173 0.009 2.445 0.048 3.299 0.133 2.905 1.747 4.52 4.653 4.653 0.855 0.039 1.125 0.048 3.299 0.048s2.445-0.009 3.3-0.048c2.901-0.133 4.521-1.745 4.652-4.653 0.039-0.853 0.048-1.125 0.048-3.299 0-2.172-0.009-2.444-0.048-3.299-0.131-2.903-1.745-4.52-4.652-4.652-0.855-0.040-1.127-0.049-3.3-0.049zM16 11.892c-2.268 0-4.108 1.839-4.108 4.108s1.84 4.108 4.108 4.108 4.108-1.839 4.108-4.108c0-2.268-1.84-4.108-4.108-4.108zM16 18.667c-1.473 0-2.667-1.193-2.667-2.667 0-1.472 1.193-2.667 2.667-2.667 1.472 0 2.668 1.193 2.668 2.667s-1.196 2.667-2.668 2.667zM20.269 10.771c-0.529 0-0.96 0.429-0.96 0.96 0 0.529 0.429 0.96 0.96 0.96s0.961-0.429 0.961-0.96c0-0.531-0.429-0.96-0.961-0.96z"></path>
</symbol>
<symbol id="icon-twitter" viewBox="0 0 32 32">
<path d="M16 2.667c7.352 0 13.333 5.981 13.333 13.333s-5.981 13.333-13.333 13.333-13.333-5.981-13.333-13.333 5.981-13.333 13.333-13.333zM16 0c-8.836 0-16 7.164-16 16s7.164 16 16 16 16-7.164 16-16-7.164-16-16-16zM24.667 11.704c-0.588 0.261-1.221 0.437-1.885 0.517 0.679-0.407 1.197-1.049 1.444-1.816-0.635 0.376-1.337 0.649-2.085 0.796-0.597-0.639-1.452-1.037-2.395-1.037-2.12 0-3.677 1.977-3.199 4.031-2.727-0.137-5.147-1.444-6.765-3.429-0.86 1.475-0.445 3.405 1.016 4.383-0.537-0.017-1.043-0.165-1.485-0.411-0.036 1.52 1.055 2.943 2.633 3.26-0.461 0.125-0.968 0.155-1.483 0.056 0.417 1.304 1.632 2.252 3.067 2.279-1.383 1.083-3.12 1.567-4.863 1.361 1.453 0.932 3.177 1.475 5.031 1.475 6.096 0 9.539-5.148 9.331-9.765 0.643-0.461 1.199-1.040 1.639-1.699z"></path>
</symbol>
<symbol id="icon-email" viewBox="0 0 40 32">
<path fill="#fff" style="fill: var(--color3, #fff)" d="M36 0h-32c-2.2 0-4 1.8-4 4v24c0 2.2 1.8 4 4 4h32c2.2 0 4-1.8 4-4v-24c0-2.2-1.8-4-4-4zM36 28h-4v-17.6l-12 7.6-12-7.6v17.6h-4v-24h2.4l13.6 8.4 13.6-8.4h2.4v24z"></path>
</symbol>

<symbol id="icon-phone" viewBox="0 0 32 32">
<path fill="#fff" style="fill: var(--color3, #fff)" d="M30.222 22.222c-2.133 0-4.267-0.356-6.4-1.067-0.533-0.178-1.244 0-1.778 0.356l-3.911 3.911c-4.978-2.489-9.067-6.756-11.733-11.733l3.911-3.911c0.533-0.533 0.711-1.244 0.356-1.778-0.533-1.956-0.889-4.089-0.889-6.222 0-1.067-0.711-1.778-1.778-1.778h-6.222c-1.067 0-1.778 0.711-1.778 1.778 0 16.711 13.511 30.222 30.222 30.222 1.067 0 1.778-0.711 1.778-1.778v-6.222c0-1.067-0.711-1.778-1.778-1.778zM28.444 16h3.556c0-8.889-7.111-16-16-16v3.556c6.933 0 12.444 5.511 12.444 12.444zM21.333 16h3.556c0-4.978-3.911-8.889-8.889-8.889v3.556c3.022 0 5.333 2.311 5.333 5.333z"></path>
</symbol>
<symbol id="icon-right-arrow" viewBox="0 0 24 24">
<path fill-rule="evenodd" d="M12 2.25c-5.385 0-9.75 4.365-9.75 9.75s4.365 9.75 9.75 9.75 9.75-4.365 9.75-9.75S17.385 2.25 12 2.25zm4.28 10.28a.75.75 0 000-1.06l-3-3a.75.75 0 10-1.06 1.06l1.72 1.72H8.25a.75.75 0 000 1.5h5.69l-1.72 1.72a.75.75 0 101.06 1.06l3-3z" clip-rule="evenodd"></path>
</symbol>
</defs>
</svg>


